<?xml version="1.0" standalone="no"?>
<!DOCTYPE svg PUBLIC "-//W3C//DTD SVG 20010904//EN"
 "http://www.w3.org/TR/2001/REC-SVG-20010904/DTD/svg10.dtd">
<svg version="1.0" xmlns="http://www.w3.org/2000/svg"
 width="50.000000pt" height="50.000000pt" viewBox="0 0 50.000000 50.000000"
 preserveAspectRatio="xMidYMid meet">
<metadata>
Created by potrace 1.10, written by Peter Selinger 2001-2011
</metadata>
<g transform="translate(0.000000,50.000000) scale(0.100000,-0.100000)"
fill="#000000" stroke="none">
<path d="M30 466 c0 -22 17 -28 38 -15 11 7 26 10 33 7 9 -4 31 -72 58 -184
24 -99 49 -185 54 -192 6 -8 11 -25 12 -39 1 -52 66 -56 73 -4 4 27 52 31 52
3 0 -38 46 -56 70 -27 7 8 10 25 6 40 -6 24 -9 25 -94 25 -91 0 -112 8 -112
42 0 16 10 18 93 18 l94 0 36 98 c21 53 37 100 37 105 0 4 -71 7 -158 7 l-159
0 -12 52 c-6 28 -16 57 -22 65 -16 18 -99 17 -99 -1z m420 -143 c0 -5 -13 -42
-29 -83 l-29 -75 -91 -3 -90 -3 -7 28 c-3 15 -12 51 -20 80 -8 28 -14 54 -14
57 0 3 63 6 140 6 77 0 140 -3 140 -7z m-174 -274 c10 -17 -13 -36 -27 -22
-12 12 -4 33 11 33 5 0 12 -5 16 -11z m130 0 c10 -17 -13 -36 -27 -22 -12 12
-4 33 11 33 5 0 12 -5 16 -11z"/>
</g>
</svg>
