<?xml version="1.0" standalone="no"?>
<!DOCTYPE svg PUBLIC "-//W3C//DTD SVG 20010904//EN"
 "http://www.w3.org/TR/2001/REC-SVG-20010904/DTD/svg10.dtd">
<svg version="1.0" xmlns="http://www.w3.org/2000/svg"
 width="300.000000pt" height="300.000000pt" viewBox="0 0 300.000000 300.000000"
 preserveAspectRatio="xMidYMid meet">
<metadata>
Created by potrace 1.10, written by Peter Selinger 2001-2011
</metadata>
<g transform="translate(0.000000,300.000000) scale(0.100000,-0.100000)"
fill="#000000" stroke="none">
<path d="M1645 2371 c-162 -42 -226 -65 -219 -81 24 -59 84 -250 94 -297 6
-32 18 -89 27 -128 14 -59 14 -80 4 -142 -13 -75 -9 -102 12 -85 7 5 26 13 43
16 30 7 32 5 44 -38 l12 -45 62 31 c75 38 146 86 146 98 0 16 -28 12 -70 -10
-46 -24 -51 -24 -44 -7 8 21 -12 62 -49 104 -34 37 -67 93 -67 111 0 6 16 13
35 16 42 8 173 94 210 138 15 18 30 27 35 22 13 -14 38 -119 51 -219 21 -161
-1 -300 -57 -360 -35 -37 -126 -115 -135 -115 -4 0 -14 18 -20 40 l-12 40 50
53 c57 60 96 128 91 160 -2 18 -15 5 -60 -59 -53 -76 -92 -117 -121 -127 -9
-3 -4 -28 16 -90 16 -48 31 -87 34 -87 12 0 131 101 180 152 68 73 78 109 78
278 -1 149 -8 190 -67 395 -64 220 -83 247 -176 252 -32 1 -87 -5 -127 -16z
m159 -31 c29 -11 53 -44 62 -86 l6 -29 -79 0 c-43 0 -89 -3 -104 -7 -34 -10
-95 -73 -116 -120 -9 -21 -20 -35 -25 -30 -9 9 -68 180 -68 198 0 14 94 47
191 69 79 17 101 18 133 5z m71 -149 c-11 -5 -57 -14 -103 -21 -76 -12 -87
-16 -132 -57 -55 -49 -63 -68 -25 -53 l26 10 -18 -25 c-22 -30 -40 -32 -48 -5
-5 15 4 33 30 66 50 61 79 78 145 85 85 9 149 9 125 0z m25 -53 c0 -21 -1 -21
-20 -3 -15 14 -17 21 -8 26 17 11 28 2 28 -23z m-20 -37 c0 -12 -92 -85 -146
-117 -90 -53 -147 -35 -88 27 35 37 70 56 144 80 62 20 90 23 90 10z m-317
-108 c9 -21 30 -75 47 -120 17 -46 39 -89 48 -95 22 -17 72 -77 72 -87 0 -8
-80 -25 -86 -18 -2 2 -26 78 -54 169 -27 90 -53 173 -56 183 -14 35 12 6 29
-32z"/>
<path d="M1270 2271 c-52 -15 -109 -35 -126 -44 -48 -25 -84 -73 -84 -113 0
-19 -2 -34 -5 -34 -2 0 -30 7 -62 15 -31 8 -87 15 -123 15 -108 0 -161 -45
-220 -186 -97 -235 -120 -490 -56 -630 28 -61 85 -148 93 -140 3 2 -11 26 -31
51 -58 77 -79 144 -84 272 -5 125 8 202 60 363 78 244 148 292 359 244 53 -12
69 -20 69 -33 0 -22 30 -124 35 -119 2 2 -3 31 -11 63 -19 73 -14 157 10 184
26 28 88 55 195 85 89 24 121 37 90 35 -8 0 -57 -13 -109 -28z"/>
<path d="M1228 2030 c-91 -47 -114 -71 -31 -34 137 62 123 60 253 40 26 -4 21
-1 -20 14 -81 28 -114 24 -202 -20z"/>
<path d="M1282 1945 c-135 -38 -117 -58 52 -59 107 -1 128 2 143 17 16 16 16
18 0 34 -23 23 -126 27 -195 8z"/>
<path d="M1096 1900 c-3 -8 -17 -46 -32 -85 -14 -38 -30 -101 -35 -138 -5 -38
-17 -97 -28 -132 -15 -49 -18 -79 -14 -139 l6 -76 -42 17 c-22 9 -41 19 -41
22 0 3 25 75 55 159 30 84 55 158 55 164 0 27 -31 -20 -65 -100 -28 -65 -50
-99 -86 -134 -27 -26 -49 -51 -49 -55 0 -5 16 -15 35 -22 58 -21 44 -55 -26
-64 -40 -5 -159 -50 -159 -59 0 -2 38 -3 84 -3 46 0 87 -3 90 -6 3 -3 -4 -33
-16 -65 l-22 -60 -45 -2 c-115 -5 -122 -7 -99 -30 16 -16 50 -15 74 3 10 8 27
15 37 15 15 0 18 -7 15 -41 -4 -51 -27 -71 -59 -51 -60 37 -109 -82 -79 -190
19 -66 85 -76 115 -18 22 43 18 61 -5 23 -24 -41 -56 -44 -70 -7 -12 31 -13
171 -1 178 4 3 16 -3 26 -14 23 -26 40 -25 60 3 16 21 17 19 14 -53 -5 -144
-2 -160 26 -160 22 0 24 2 15 26 -6 14 -10 83 -10 153 l0 127 34 -4 33 -4 -14
-41 c-29 -84 -1 -231 49 -258 22 -12 68 -4 68 11 0 6 -8 10 -18 10 -46 0 -82
80 -82 180 0 91 4 96 71 107 53 9 59 8 52 -6 -4 -9 -10 -104 -13 -211 -4 -107
-10 -204 -15 -215 -4 -11 -19 -30 -34 -42 -18 -16 -21 -23 -10 -23 23 0 68 52
79 91 6 18 10 122 10 229 l0 195 73 37 c83 43 143 101 216 207 l51 74 -35 36
c-19 20 -40 43 -47 52 -7 9 -45 26 -84 38 -112 33 -179 90 -115 99 49 7 95 -9
130 -46 l35 -37 -40 73 c-43 79 -34 75 -123 55 -16 -4 -22 -2 -17 5 3 6 27 14
51 18 25 3 45 7 45 8 0 0 -15 44 -34 96 -19 53 -37 88 -40 80z m17 -360 c32
-16 73 -32 92 -36 19 -3 48 -22 71 -45 l38 -39 -19 -37 c-31 -57 -138 -166
-194 -197 -52 -28 -71 -27 -71 1 0 9 -12 36 -26 61 l-26 44 26 27 c25 26 26
33 25 112 -2 69 10 139 23 139 2 0 29 -14 61 -30z m-184 -257 c30 -29 99 -143
86 -143 -4 0 -25 16 -47 35 -21 20 -54 43 -72 52 -32 15 -33 17 -23 49 6 19
14 34 19 34 4 0 21 -12 37 -27z m0 -124 c21 -17 22 -22 10 -30 -17 -11 -76
-12 -82 -1 -9 14 13 52 30 52 10 -1 29 -10 42 -21z"/>
<path d="M690 1868 c0 -3 41 -13 91 -23 85 -17 94 -21 146 -69 62 -56 58 -34
-5 31 -25 25 -52 42 -73 46 -60 11 -159 20 -159 15z"/>
<path d="M685 1760 c-10 -16 3 -23 97 -60 113 -44 197 -38 153 10 -35 38 -233
78 -250 50z"/>
<path d="M1526 1561 l-109 -6 39 -19 c61 -29 175 -66 204 -66 23 0 27 4 26 29
-1 16 -5 26 -10 23 -5 -3 -6 3 -2 13 7 18 -9 37 -29 33 -5 -1 -59 -4 -119 -7z"/>
<path d="M1400 1396 c45 -44 226 -107 300 -105 14 1 -15 9 -65 19 -57 12 -119
34 -170 60 -44 22 -73 34 -65 26z"/>
<path d="M65 1249 c-16 -5 -37 -8 -45 -6 -13 3 -15 -27 -15 -230 l0 -233 27 0
c25 0 26 2 17 33 -5 17 -9 109 -8 203 1 112 -3 179 -10 193 -11 20 -10 21 42
21 62 0 84 -17 97 -76 7 -29 3 -55 -17 -118 -43 -131 -32 -256 23 -256 l23 0
-19 43 c-34 76 -35 133 -6 220 27 79 34 151 16 162 -22 13 -8 25 29 25 30 0
44 -6 59 -25 34 -43 35 -86 7 -167 -44 -122 -33 -258 20 -258 l24 0 -21 46
c-27 63 -27 162 1 232 11 29 21 73 21 98 0 37 -5 51 -30 76 -28 27 -35 30 -68
23 -43 -9 -77 -9 -112 -1 -14 2 -38 1 -55 -5z"/>
<path d="M1425 1236 c-28 -28 -28 -49 0 -26 14 12 105 8 126 -6 4 -2 -6 -17
-22 -33 l-29 -29 0 -162 c0 -92 -4 -170 -10 -181 -10 -17 -7 -19 24 -19 34 0
35 1 26 26 -13 34 -13 279 0 326 7 25 26 50 55 74 25 20 45 41 45 46 0 6 -7 5
-15 -2 -15 -12 -65 -10 -142 6 -26 5 -36 2 -58 -20z"/>
<path d="M1707 1253 c-39 -11 -47 -52 -47 -256 0 -137 -3 -196 -12 -205 -9 -9
-4 -12 25 -12 35 0 36 1 27 26 -13 34 -13 199 1 247 12 46 49 73 77 58 29 -15
34 -54 17 -122 -19 -72 -21 -158 -6 -188 7 -12 21 -21 35 -21 l23 0 -20 41
c-19 38 -20 48 -9 111 17 100 15 141 -9 172 -25 32 -64 34 -96 4 l-23 -21 0
51 c0 28 5 63 10 77 10 26 11 27 35 11 33 -21 82 -21 94 2 8 14 4 17 -22 18
-18 0 -43 3 -57 6 -14 3 -33 4 -43 1z"/>
<path d="M365 1180 c-9 -15 4 -30 26 -30 12 0 19 7 19 20 0 21 -33 29 -45 10z"/>
<path d="M2295 1173 c18 -44 17 -51 -7 -56 -23 -4 -23 -4 0 -6 22 -1 22 -3 22
-140 0 -77 -4 -151 -10 -165 -9 -25 -8 -26 27 -26 29 0 34 3 25 12 -8 8 -12
59 -12 164 0 137 2 153 18 157 16 4 16 5 0 6 -14 1 -18 10 -18 36 0 31 -3 35
-26 35 -21 0 -25 -3 -19 -17z"/>
<path d="M2585 1180 c-9 -15 4 -30 26 -30 12 0 19 7 19 20 0 21 -33 29 -45 10z"/>
<path d="M516 1111 c-19 -21 -23 -52 -4 -33 7 7 30 12 53 12 36 0 65 13 65 30
0 3 -22 6 -49 7 -36 2 -53 -3 -65 -16z"/>
<path d="M1131 1114 c-81 -57 -81 -271 0 -328 30 -20 83 -21 103 0 23 22 20
52 -8 85 -20 23 -26 26 -35 15 -9 -11 -6 -21 14 -44 30 -36 31 -49 5 -57 -45
-14 -92 43 -105 126 -15 98 38 230 81 203 45 -27 34 -145 -18 -189 -24 -20
-26 -25 -11 -25 73 0 123 139 72 204 -24 30 -63 34 -98 10z"/>
<path d="M1927 1119 c-48 -28 -79 -157 -57 -238 16 -59 67 -111 109 -111 39 0
75 33 66 61 -8 24 -52 69 -59 61 -13 -12 -5 -43 14 -54 44 -28 12 -71 -36 -49
-95 43 -76 362 19 325 48 -18 22 -182 -32 -199 -12 -3 -21 -10 -21 -15 0 -15
56 10 81 36 34 36 40 143 10 173 -22 22 -65 27 -94 10z"/>
<path d="M2141 1119 c-13 -5 -33 -7 -44 -3 -23 7 -20 -14 6 -30 12 -8 26 -7
49 3 71 28 66 34 67 -87 0 -93 -3 -115 -22 -153 -28 -57 -60 -64 -76 -18 -12
35 -15 137 -5 164 6 14 10 13 31 -7 18 -17 28 -20 40 -12 9 6 18 15 20 20 5
14 -69 34 -88 24 -63 -34 -56 -230 9 -247 32 -8 53 5 74 48 l18 34 0 -37 c0
-33 3 -38 23 -38 l22 0 -5 154 c-5 132 -9 158 -24 175 -20 22 -56 26 -95 10z"/>
<path d="M2451 1104 c-12 -15 -21 -32 -21 -38 0 -6 5 -3 11 7 7 12 23 17 52
17 38 0 67 13 67 30 0 3 -20 6 -44 8 -38 2 -48 -2 -65 -24z"/>
<path d="M368 964 c2 -110 0 -159 -9 -170 -10 -12 -6 -14 24 -14 35 0 36 1 26
29 -6 16 -9 92 -7 170 3 135 2 141 -17 141 -19 0 -20 -6 -17 -156z"/>
<path d="M445 950 l0 -170 34 0 c28 0 31 2 22 14 -9 10 -12 56 -11 143 2 191
3 183 -22 183 -23 0 -23 0 -23 -170z"/>
<path d="M2385 950 l0 -170 27 0 c25 0 26 2 18 33 -5 17 -8 94 -7 170 3 133 3
137 -17 137 -20 0 -21 -5 -21 -170z"/>
<path d="M2588 971 c3 -98 0 -156 -7 -170 -11 -20 -9 -21 24 -21 32 0 35 2 25
19 -5 11 -10 86 -10 170 0 137 -2 151 -17 151 -17 0 -18 -12 -15 -149z"/>
<path d="M2664 1098 c8 -13 24 -47 36 -77 21 -53 21 -54 2 -75 -61 -66 -71
-166 -17 -166 23 0 23 1 8 31 -18 36 -11 87 16 120 l18 22 26 -78 c15 -43 24
-82 21 -86 -3 -5 11 -9 31 -9 32 0 35 2 21 15 -8 8 -24 41 -35 72 -12 32 -25
67 -30 78 -6 15 1 27 31 56 34 32 39 42 36 76 -3 34 -6 38 -33 41 -29 4 -29 4
-11 -17 13 -14 16 -28 12 -47 -9 -34 -36 -75 -46 -69 -4 2 -16 34 -26 70 -17
60 -21 65 -47 65 -26 0 -27 -1 -13 -22z"/>
<path d="M2853 1102 c16 -17 71 -160 106 -269 9 -29 22 -53 29 -53 18 0 15 27
-15 112 l-26 78 26 20 c23 19 27 29 27 76 0 48 -2 54 -21 54 -19 0 -19 -1 -5
-16 9 -8 16 -25 16 -37 0 -29 -39 -92 -49 -81 -15 16 -43 113 -36 124 4 6 -8
10 -31 10 -35 0 -36 -1 -21 -18z"/>
<path d="M2865 907 c-38 -66 -33 -127 12 -127 21 0 23 2 13 15 -17 21 -15 87
5 124 24 47 -1 37 -30 -12z"/>
</g>
</svg>
